<?xml version="1.0" encoding="UTF-8"?>
<svg version="1.1" xmlns="http://www.w3.org/2000/svg" width="1024" height="1024">
<path d="M0 0 C337.92 0 675.84 0 1024 0 C1024 337.92 1024 675.84 1024 1024 C686.08 1024 348.16 1024 0 1024 C0 686.08 0 348.16 0 0 Z " fill="#FEFEFE" transform="translate(0,0)"/>
<path d="M0 0 C1.54753526 1.30557535 3.08963946 2.61762866 4.625 3.9375 C5.29789063 4.46601563 5.97078125 4.99453125 6.6640625 5.5390625 C9.94121898 8.18951177 12.63556121 10.85471777 15.0625 14.30078125 C15.70058594 15.1966394 15.70058594 15.1966394 16.3515625 16.1105957 C17.18619398 17.30797825 17.99486133 18.52397867 18.7734375 19.75854492 C20.03674911 21.70831988 20.03674911 21.70831988 22.625 23.9375 C28.21326319 23.65402932 33.14192878 22.30577776 38.40234375 20.42578125 C39.88745866 19.91231111 41.37273528 19.3993085 42.8581543 18.88671875 C43.62574066 18.61907715 44.39332703 18.35143555 45.18417358 18.07568359 C68.62609498 9.93735163 92.01558462 4.28316859 116.625 0.9375 C117.84840088 0.75872314 119.07180176 0.57994629 120.33227539 0.39575195 C132.56484921 -1.29789985 144.72913743 -1.4168027 157.0625 -1.375 C158.64964813 -1.37326279 158.64964813 -1.37326279 160.26885986 -1.37149048 C176.26494917 -1.33687738 191.8134155 -0.63947535 207.625 1.9375 C209.16887112 2.15905346 210.71312891 2.37793392 212.2578125 2.59375 C237.88552507 6.33425602 263.44288519 13.15340912 287.4453125 22.87109375 C291.48398554 24.24097796 291.48398554 24.24097796 295.625 23.9375 C297.85740713 21.86922094 297.85740713 21.86922094 299.8125 19.0625 C316.92200782 -2.92335849 340.99295003 -16.32679042 368.39501953 -20.66992188 C373.90921463 -21.3401279 379.38822659 -21.40234218 384.9375 -21.375 C386.12375977 -21.37008545 387.31001953 -21.3651709 388.53222656 -21.36010742 C397.26650085 -21.24348297 405.20308139 -20.51683116 413.625 -18.0625 C415.44064453 -17.55203125 415.44064453 -17.55203125 417.29296875 -17.03125 C441.11180781 -9.72516051 461.47040798 4.12210343 476.625 23.9375 C477.23214844 24.72898438 477.83929687 25.52046875 478.46484375 26.3359375 C495.85461401 50.07435404 503.40430412 78.76967686 499.9375 107.9375 C495.44954025 134.98906427 482.08182245 159.60214931 460.625 176.9375 C461.40810547 178.52498047 461.40810547 178.52498047 462.20703125 180.14453125 C480.80732945 218.33176709 493.28521754 257.80388803 498.625 299.9375 C498.71235413 300.5991214 498.79970825 301.2607428 498.88970947 301.94241333 C499.61668364 307.83370575 499.8004382 313.65358681 499.828125 319.5859375 C499.83504868 320.58843536 499.84197235 321.59093323 499.84910583 322.62380981 C499.86634149 325.85341322 499.87269653 329.08285272 499.875 332.3125 C499.87633942 333.41231201 499.87767883 334.51212402 499.87905884 335.64526367 C499.874657 352.2823863 499.25135559 368.48090126 496.625 384.9375 C496.41673576 386.40477343 496.20961151 387.87220937 496.00390625 389.33984375 C488.23549388 441.24076784 465.71958708 491.32382273 432.625 531.9375 C431.80902344 532.95714844 430.99304688 533.97679687 430.15234375 535.02734375 C423.59282983 543.04681218 416.36162587 550.41053126 409.0625 557.75 C408.57971588 558.23805115 408.09693176 558.72610229 407.59951782 559.22894287 C400.95770164 565.92671239 394.03722604 572.09880255 386.625 577.9375 C385.71415649 578.66779419 385.71415649 578.66779419 384.78491211 579.4128418 C335.94754868 618.45351163 276.08944206 639.76684089 214.625 647.9375 C213.52349609 648.08993164 212.42199219 648.24236328 211.28710938 648.39941406 C170.17111473 653.92370469 127.36524023 652.38802478 86.625 644.9375 C85.59133301 644.75316406 84.55766602 644.56882812 83.49267578 644.37890625 C52.72194203 638.83721223 22.82933241 629.45455904 -5.375 615.9375 C-6.25510742 615.52129395 -7.13521484 615.10508789 -8.04199219 614.67626953 C-26.59022616 605.86635575 -44.26107983 595.71673392 -60.375 582.9375 C-61.49867273 582.07768971 -62.62374406 581.21970503 -63.75 580.36328125 C-82.30374582 566.16819318 -100.19853353 549.52318242 -114.375 530.9375 C-115.13296875 529.99648438 -115.8909375 529.05546875 -116.671875 528.0859375 C-142.88895433 495.10585362 -161.67969064 455.87766561 -171.375 414.9375 C-171.63410156 413.8434082 -171.89320313 412.74931641 -172.16015625 411.62207031 C-178.04079504 386.24583552 -180.62576657 361.36621729 -180.6875 335.375 C-180.69126648 334.5046109 -180.69503296 333.6342218 -180.69891357 332.73745728 C-180.81072207 281.87961949 -168.03398624 231.28846991 -144.60229492 186.19458008 C-144.15088135 185.29892334 -143.69946777 184.4032666 -143.234375 183.48046875 C-142.82670898 182.69696045 -142.41904297 181.91345215 -141.99902344 181.10620117 C-141.14968855 178.93374186 -141.14968855 178.93374186 -142.10229492 176.81347656 C-144.0088015 174.00327197 -146.47588685 171.81185867 -148.9375 169.5 C-162.85249259 155.95437659 -172.19627126 138.5534605 -177.375 119.9375 C-177.6946875 118.82761719 -178.014375 117.71773437 -178.34375 116.57421875 C-185.67762541 86.5936077 -177.9702761 56.80644139 -162.375 30.9375 C-159.93261686 27.36823513 -157.26299263 24.15223633 -154.375 20.9375 C-153.56546875 19.98617187 -152.7559375 19.03484375 -151.921875 18.0546875 C-137.35266523 1.2050561 -118.60763133 -10.49158069 -97.375 -17.0625 C-96.70871582 -17.27277832 -96.04243164 -17.48305664 -95.35595703 -17.69970703 C-63.48819259 -27.33556686 -26.14779172 -20.57596395 0 0 Z " fill="#FEFEFE" transform="translate(352.375,202.0625)"/>
<path d="M0 0 C1.54753526 1.30557535 3.08963946 2.61762866 4.625 3.9375 C5.29789063 4.46601563 5.97078125 4.99453125 6.6640625 5.5390625 C9.94121898 8.18951177 12.63556121 10.85471777 15.0625 14.30078125 C15.70058594 15.1966394 15.70058594 15.1966394 16.3515625 16.1105957 C17.18619398 17.30797825 17.99486133 18.52397867 18.7734375 19.75854492 C20.03674911 21.70831988 20.03674911 21.70831988 22.625 23.9375 C28.21326319 23.65402932 33.14192878 22.30577776 38.40234375 20.42578125 C39.88745866 19.91231111 41.37273528 19.3993085 42.8581543 18.88671875 C43.62574066 18.61907715 44.39332703 18.35143555 45.18417358 18.07568359 C68.62609498 9.93735163 92.01558462 4.28316859 116.625 0.9375 C117.84840088 0.75872314 119.07180176 0.57994629 120.33227539 0.39575195 C132.56484921 -1.29789985 144.72913743 -1.4168027 157.0625 -1.375 C158.64964813 -1.37326279 158.64964813 -1.37326279 160.26885986 -1.37149048 C176.26494917 -1.33687738 191.8134155 -0.63947535 207.625 1.9375 C209.16887112 2.15905346 210.71312891 2.37793392 212.2578125 2.59375 C237.88552507 6.33425602 263.44288519 13.15340912 287.4453125 22.87109375 C291.48398554 24.24097796 291.48398554 24.24097796 295.625 23.9375 C297.85740713 21.86922094 297.85740713 21.86922094 299.8125 19.0625 C316.92200782 -2.92335849 340.99295003 -16.32679042 368.39501953 -20.66992188 C373.90921463 -21.3401279 379.38822659 -21.40234218 384.9375 -21.375 C386.12375977 -21.37008545 387.31001953 -21.3651709 388.53222656 -21.36010742 C397.26650085 -21.24348297 405.20308139 -20.51683116 413.625 -18.0625 C415.44064453 -17.55203125 415.44064453 -17.55203125 417.29296875 -17.03125 C441.11180781 -9.72516051 461.47040798 4.12210343 476.625 23.9375 C477.23214844 24.72898438 477.83929687 25.52046875 478.46484375 26.3359375 C495.85461401 50.07435404 503.40430412 78.76967686 499.9375 107.9375 C495.44954025 134.98906427 482.08182245 159.60214931 460.625 176.9375 C461.40810547 178.52498047 461.40810547 178.52498047 462.20703125 180.14453125 C480.80732945 218.33176709 493.28521754 257.80388803 498.625 299.9375 C498.71235413 300.5991214 498.79970825 301.2607428 498.88970947 301.94241333 C499.61668364 307.83370575 499.8004382 313.65358681 499.828125 319.5859375 C499.83504868 320.58843536 499.84197235 321.59093323 499.84910583 322.62380981 C499.86634149 325.85341322 499.87269653 329.08285272 499.875 332.3125 C499.87633942 333.41231201 499.87767883 334.51212402 499.87905884 335.64526367 C499.874657 352.2823863 499.25135559 368.48090126 496.625 384.9375 C496.41673576 386.40477343 496.20961151 387.87220937 496.00390625 389.33984375 C488.23549388 441.24076784 465.71958708 491.32382273 432.625 531.9375 C431.80902344 532.95714844 430.99304688 533.97679687 430.15234375 535.02734375 C423.59282983 543.04681218 416.36162587 550.41053126 409.0625 557.75 C408.57971588 558.23805115 408.09693176 558.72610229 407.59951782 559.22894287 C400.95770164 565.92671239 394.03722604 572.09880255 386.625 577.9375 C385.71415649 578.66779419 385.71415649 578.66779419 384.78491211 579.4128418 C335.94754868 618.45351163 276.08944206 639.76684089 214.625 647.9375 C213.52349609 648.08993164 212.42199219 648.24236328 211.28710938 648.39941406 C170.17111473 653.92370469 127.36524023 652.38802478 86.625 644.9375 C85.59133301 644.75316406 84.55766602 644.56882812 83.49267578 644.37890625 C52.72194203 638.83721223 22.82933241 629.45455904 -5.375 615.9375 C-6.25510742 615.52129395 -7.13521484 615.10508789 -8.04199219 614.67626953 C-26.59022616 605.86635575 -44.26107983 595.71673392 -60.375 582.9375 C-61.49867273 582.07768971 -62.62374406 581.21970503 -63.75 580.36328125 C-82.30374582 566.16819318 -100.19853353 549.52318242 -114.375 530.9375 C-115.13296875 529.99648438 -115.8909375 529.05546875 -116.671875 528.0859375 C-142.88895433 495.10585362 -161.67969064 455.87766561 -171.375 414.9375 C-171.63410156 413.8434082 -171.89320313 412.74931641 -172.16015625 411.62207031 C-178.04079504 386.24583552 -180.62576657 361.36621729 -180.6875 335.375 C-180.69126648 334.5046109 -180.69503296 333.6342218 -180.69891357 332.73745728 C-180.81072207 281.87961949 -168.03398624 231.28846991 -144.60229492 186.19458008 C-144.15088135 185.29892334 -143.69946777 184.4032666 -143.234375 183.48046875 C-142.82670898 182.69696045 -142.41904297 181.91345215 -141.99902344 181.10620117 C-141.14968855 178.93374186 -141.14968855 178.93374186 -142.10229492 176.81347656 C-144.0088015 174.00327197 -146.47588685 171.81185867 -148.9375 169.5 C-162.85249259 155.95437659 -172.19627126 138.5534605 -177.375 119.9375 C-177.6946875 118.82761719 -178.014375 117.71773437 -178.34375 116.57421875 C-185.67762541 86.5936077 -177.9702761 56.80644139 -162.375 30.9375 C-159.93261686 27.36823513 -157.26299263 24.15223633 -154.375 20.9375 C-153.56546875 19.98617187 -152.7559375 19.03484375 -151.921875 18.0546875 C-137.35266523 1.2050561 -118.60763133 -10.49158069 -97.375 -17.0625 C-96.70871582 -17.27277832 -96.04243164 -17.48305664 -95.35595703 -17.69970703 C-63.48819259 -27.33556686 -26.14779172 -20.57596395 0 0 Z M111.625 33.9375 C110.63306641 34.10910645 109.64113281 34.28071289 108.61914062 34.45751953 C92.95235356 37.18822587 77.77404902 41.12326234 62.625 45.9375 C61.77663574 46.20256348 60.92827148 46.46762695 60.05419922 46.74072266 C24.28685439 58.04425248 -8.5226505 77.14476541 -37.375 100.9375 C-38.38820313 101.76378906 -39.40140625 102.59007812 -40.4453125 103.44140625 C-54.65316194 115.20780638 -68.15974322 128.2668384 -79.375 142.9375 C-80.44565115 144.27135289 -81.51879197 145.60320935 -82.59375 146.93359375 C-114.56635466 186.80349786 -135.32761452 234.31231645 -144.6875 284.4375 C-144.83485596 285.22342529 -144.98221191 286.00935059 -145.1340332 286.8190918 C-148.0072917 303.36347246 -148.75198108 319.86147106 -148.6875 336.625 C-148.68534485 337.63762909 -148.6831897 338.65025818 -148.68096924 339.693573 C-148.62994184 354.6515329 -148.12372427 369.2017056 -145.375 383.9375 C-145.19227539 385.00967773 -145.00955078 386.08185547 -144.82128906 387.18652344 C-139.75153063 416.69767884 -130.3454757 444.45118591 -116.375 470.9375 C-115.77606934 472.09354736 -115.77606934 472.09354736 -115.16503906 473.27294922 C-82.84668196 535.28887732 -23.35414965 578.45874859 41.625 600.9375 C42.53378906 601.25315918 43.44257813 601.56881836 44.37890625 601.89404297 C81.43799942 614.52353378 120.44960024 619.27940977 159.4375 619.3125 C160.42663391 619.31458466 161.41576782 619.31666931 162.43487549 619.31881714 C212.02585672 619.30694067 261.2704133 610.25475085 306.625 589.9375 C307.42115723 589.586875 308.21731445 589.23625 309.03759766 588.875 C333.92983334 577.87623006 357.33713173 562.45937142 377.359375 544.01953125 C379.43392036 542.1130956 381.54765931 540.2698439 383.6875 538.4375 C390.8916505 532.14839281 397.50580796 525.28053045 403.625 517.9375 C404.04620117 517.43541016 404.46740234 516.93332031 404.90136719 516.41601562 C452.94086571 458.84885038 474.41180709 382.83499194 467.85351562 308.40673828 C462.08555802 251.80267917 441.50632124 197.01270941 406.625 151.9375 C405.95210937 151.06351562 405.27921875 150.18953125 404.5859375 149.2890625 C402.63427398 146.80731754 400.63960506 144.36840721 398.625 141.9375 C397.80257812 140.92945313 396.98015625 139.92140625 396.1328125 138.8828125 C384.38234033 124.68867655 371.33354156 111.07972395 356.625 99.9375 C355.31929248 98.91666791 354.01469757 97.89441186 352.7109375 96.87109375 C297.2789787 53.60171544 228.8660102 30.35533898 158.5 30.625 C157.50987915 30.62682281 156.5197583 30.62864563 155.49963379 30.63052368 C140.6511496 30.67649654 126.25836748 31.23396689 111.625 33.9375 Z " fill="#181818" transform="translate(352.375,202.0625)"/>
<path d="M0 0 C6.86164462 5.10010015 13.31595664 10.69215099 19.51171875 16.578125 C20.04410156 17.07795898 20.57648438 17.57779297 21.125 18.09277344 C48.89077778 44.30730291 64.74982506 78.11120514 67.796875 116.13671875 C68.38381451 136.57752515 62.14090629 158.1391684 48.09667969 173.22290039 C34.9782855 186.52192276 17.96279853 192.74503418 -0.55078125 192.953125 C-31.16168118 193.03489034 -57.99820208 178.97802209 -79.40234375 157.734375 C-106.89758989 129.44355437 -121.27508792 87.61251322 -120.7578125 48.67578125 C-120.16320162 29.67459512 -111.787475 12.20964798 -98.62890625 -1.3359375 C-70.42664994 -27.79012007 -29.29853386 -20.92396003 0 0 Z " fill="#181818" transform="translate(689.48828125,402.421875)"/>
<path d="M0 0 C15.50902344 11.56276061 23.96546205 29.20615028 27.23583984 47.97241211 C31.34005538 83.91306591 19.89760433 123.49062866 -2.34619141 151.94506836 C-3.66527011 153.5196208 -4.99874396 155.08222342 -6.34619141 156.63256836 C-7.05517578 157.46272461 -7.76416016 158.29288086 -8.49462891 159.14819336 C-25.07513276 178.11396268 -45.01455152 190.28657054 -69.34619141 196.63256836 C-70.17505859 196.8581543 -71.00392578 197.08374023 -71.85791016 197.31616211 C-93.38553336 202.2164845 -113.47378123 197.56514802 -131.86181641 186.05834961 C-133.7934416 184.67046931 -135.57082053 183.21426241 -137.34619141 181.63256836 C-138.32072266 180.81272461 -138.32072266 180.81272461 -139.31494141 179.97631836 C-148.61254359 171.53695638 -154.25960947 159.65399274 -157.34619141 147.63256836 C-157.68263672 146.32545898 -157.68263672 146.32545898 -158.02587891 144.99194336 C-161.26331052 129.47001096 -160.06126828 112.92710561 -156.34619141 97.63256836 C-156.07935547 96.41698242 -155.81251953 95.20139648 -155.53759766 93.94897461 C-150.21974697 71.61400172 -138.50155635 52.59437774 -123.34619141 35.63256836 C-122.158374 34.23700512 -120.97082943 32.84120956 -119.78369141 31.44506836 C-90.4180518 -1.66053478 -41.437232 -29.47691231 0 0 Z " fill="#181819" transform="translate(427.34619140625,396.367431640625)"/>
<path d="M0 0 C5.48771152 5.1842436 9.10271728 10.56079698 9.4375 18.25 C9.04996942 30.16656532 2.49539388 38.95709201 -5.9375 46.875 C-10.79158694 51.057241 -16.08171855 54.6086463 -21.41577148 58.14404297 C-26.69233771 61.53644969 -26.69233771 61.53644969 -31 66 C-32.24659777 73.79369002 -31.68209799 82.89787505 -28 90 C-23.25562535 95.94011136 -15.39580668 99.62944841 -8 101 C7.66143279 102.00246317 18.81696347 99.58142612 31 89 C33.44567888 86.43821692 35.76854132 83.82901366 38.02734375 81.1015625 C40.57651015 78.38581691 42.44285543 77.10863799 46.18359375 76.84765625 C50.49992018 77.25909118 52.53449925 77.62178064 56 80.4375 C58.98684649 84.26439707 59.47861447 86.72645053 59.39453125 91.50390625 C58.00800166 100.27610831 49.61421633 106.85662459 43 112 C27.81872823 122.69239319 11.04496272 129.08415068 -7.609375 126.5 C-21.76995629 123.9568752 -31.98302775 118.96594018 -43 110 C-46.56940271 111.67261866 -49.8054763 113.75530414 -53.125 115.875 C-68.90432652 125.72488313 -86.84972048 128.74191241 -105.27783203 125.61328125 C-109.43936579 124.58498035 -113.1898761 122.93459779 -117 121 C-118.01835937 120.50371094 -119.03671875 120.00742187 -120.0859375 119.49609375 C-128.1903866 115.17302643 -134.54041918 109.42141491 -141 103 C-141.67675781 102.36964844 -142.35351562 101.73929688 -143.05078125 101.08984375 C-146.85187617 97.25246153 -148.00463311 93.76612183 -148.234375 88.3671875 C-147.76390416 83.61543197 -145.24404022 81.10186419 -141.8125 78.0625 C-137.68224216 76.50218037 -134.22050917 76.73949913 -130 78 C-127.19409097 80.02499728 -125.06392388 82.51234367 -122.8125 85.125 C-114.92403118 93.66336822 -105.71031708 100.46713354 -93.6796875 101.203125 C-81.83895097 101.34900676 -71.4505868 99.77495084 -62 92 C-57.86094922 86.53189621 -55.87901811 81.01470853 -55.75 74.1875 C-55.72421875 73.37667969 -55.6984375 72.56585937 -55.671875 71.73046875 C-56.1839055 67.46964349 -57.23196343 63.61901221 -60.49169922 60.6340332 C-62.30451853 59.35227535 -64.1544564 58.19740811 -66.0625 57.0625 C-67.42010002 56.20518864 -68.77556628 55.3444893 -70.12890625 54.48046875 C-70.79035645 54.06200684 -71.45180664 53.64354492 -72.13330078 53.21240234 C-83.83565902 45.61183852 -92.54183142 36.37450575 -97 23 C-97.72881425 16.27340289 -97.31394002 10.42457498 -93 5 C-75.58298701 -10.90729305 -19.26836095 -15.05041129 0 0 Z " fill="#181818" transform="translate(556,554)"/>
<path d="M0 0 C6.8299462 3.83111102 11.0235169 10.94661328 13.51953125 18.1953125 C14.6240444 26.05600351 12.72901476 33.66769843 7.95703125 40.0078125 C2.83048801 45.43740263 -3.79071217 47.3808084 -11.10546875 47.6953125 C-18.13455902 47.38797569 -23.00366923 45.07502792 -27.79296875 39.9453125 C-33.41052968 32.70524078 -34.54306889 25.2457344 -33.48046875 16.1953125 C-31.68614615 9.54841935 -27.04437804 5.02891853 -21.48046875 1.1953125 C-15.08188645 -2.01471452 -6.7770185 -2.19852884 0 0 Z " fill="#FDFDFD" transform="translate(641.48046875,457.8046875)"/>
<path d="M0 0 C6.90728182 4.12878876 11.36382401 10.3302737 13.515625 18.0546875 C14.2699285 25.44851956 14.44107658 31.55801938 10.515625 38.0546875 C6.11756081 43.05149805 0.63432054 46.48352787 -6.01953125 47.40625 C-13.80177281 47.82217852 -20.19252403 45.80105141 -26.11328125 40.6328125 C-32.02650101 34.06649085 -33.06926001 27.76387199 -32.82421875 19.20703125 C-31.99928559 11.55506501 -28.29438589 7.38332504 -22.58203125 2.5 C-16.13030167 -1.94532578 -7.34082209 -2.79320589 0 0 Z " fill="#FDFDFD" transform="translate(402.484375,458.9453125)"/>
<path d="M0 0 C3.04101562 -0.38818359 3.04101562 -0.38818359 6.90625 -0.3984375 C7.58675415 -0.40130768 8.2672583 -0.40417786 8.96838379 -0.40713501 C10.40747916 -0.40917695 11.84660221 -0.40363786 13.28564453 -0.39111328 C15.4918406 -0.37505937 17.69620484 -0.39095531 19.90234375 -0.41015625 C21.29948322 -0.40817384 22.69662155 -0.4043302 24.09375 -0.3984375 C25.36927734 -0.39505371 26.64480469 -0.39166992 27.95898438 -0.38818359 C28.96251953 -0.26008301 29.96605469 -0.13198242 31 0 C31.66 0.99 32.32 1.98 33 3 C21.45 3 9.9 3 -2 3 C-1.34 2.01 -0.68 1.02 0 0 Z " fill="#252525" transform="translate(500,547)"/>
<path d="M0 0 C0 8.58 0 17.16 0 26 C-3 23 -3 23 -3.34057617 20.63989258 C-3.32486572 19.73392334 -3.30915527 18.8279541 -3.29296875 17.89453125 C-3.28330078 16.91162109 -3.27363281 15.92871094 -3.26367188 14.91601562 C-3.23853516 13.89185547 -3.21339844 12.86769531 -3.1875 11.8125 C-3.17396484 10.77673828 -3.16042969 9.74097656 -3.14648438 8.67382812 C-3.11111389 6.11536301 -3.06175544 3.5579422 -3 1 C-1 0 -1 0 0 0 Z " fill="#1E1E1E" transform="translate(271,509)"/>
<path d="M0 0 C0.99 0.33 1.98 0.66 3 1 C3.08071788 3.79224073 3.14035408 6.58216566 3.1875 9.375 C3.21263672 10.1690625 3.23777344 10.963125 3.26367188 11.78125 C3.29004405 13.85586148 3.15486462 15.93100865 3 18 C2.01 18.66 1.02 19.32 0 20 C0 13.4 0 6.8 0 0 Z " fill="#232323" transform="translate(850,285)"/>
<path d="M0 0 C-0.33 5.28 -0.66 10.56 -1 16 C-4 13 -4 13 -4.25 9.625 C-4.04268854 6.61898386 -3.849175 3.887195 -3 1 C-1 0 -1 0 0 0 Z " fill="#232323" transform="translate(573,439)"/>
<path d="M0 0 C0 0.99 0 1.98 0 3 C-1.74965358 3.05429959 -3.49979787 3.09292823 -5.25 3.125 C-6.22453125 3.14820313 -7.1990625 3.17140625 -8.203125 3.1953125 C-11.0196498 2.99862781 -12.60949036 2.44568916 -15 1 C-9.91913204 0.15318867 -5.15171623 -0.09038099 0 0 Z " fill="#202020" transform="translate(543,820)"/>
<path d="M0 0 C0.33 0 0.66 0 1 0 C1.125 6.75 1.125 6.75 0 9 C-0.039992 10.99960012 -0.04346799 13.00047242 0 15 C-0.99 15 -1.98 15 -3 15 C-2.88623383 12.87436897 -2.75864369 10.7494739 -2.625 8.625 C-2.55539062 7.44164062 -2.48578125 6.25828125 -2.4140625 5.0390625 C-2 2 -2 2 0 0 Z " fill="#272627" transform="translate(821,563)"/>
<path d="M0 0 C0.33 0 0.66 0 1 0 C1 4.29 1 8.58 1 13 C0.01 12.34 -0.98 11.68 -2 11 C-2.56737589 3.85106383 -2.56737589 3.85106383 0 0 Z " fill="#252525" transform="translate(174,548)"/>
<path d="M0 0 C0.556875 0.144375 1.11375 0.28875 1.6875 0.4375 C4.11384195 1.02769128 6.54906345 1.523429 9 2 C9 2.99 9 3.98 9 5 C6.03 4.505 6.03 4.505 3 4 C2.67 3.01 2.34 2.02 2 1 C1.34 0.67 0.68 0.34 0 0 Z " fill="#1F1F1F" transform="translate(311,588)"/>
<path d="M0 0 C1.9078584 3.1749094 2.1609041 5.10585211 1.625 8.75 C1.51414063 9.54921875 1.40328125 10.3484375 1.2890625 11.171875 C1.19367188 11.77515625 1.09828125 12.3784375 1 13 C0.67 13 0.34 13 0 13 C-1.28571429 4.57142857 -1.28571429 4.57142857 0 0 Z " fill="#252425" transform="translate(180,462)"/>
<path d="M0 0 C0.99 0 1.98 0 3 0 C2.67 2.31 2.34 4.62 2 7 C1.01 7.33 0.02 7.66 -1 8 C-0.67 5.36 -0.34 2.72 0 0 Z " fill="#222222" transform="translate(815,593)"/>
<path d="M0 0 C0 0.99 0 1.98 0 3 C-1.75 4.38671875 -1.75 4.38671875 -4 5.6875 C-4.7425 6.12449219 -5.485 6.56148438 -6.25 7.01171875 C-6.8275 7.33785156 -7.405 7.66398437 -8 8 C-6.20953589 3.86281109 -3.83902629 2.33679861 0 0 Z " fill="#111111" transform="translate(337,402)"/>
<path d="M0 0 C1.10191901 4.40767604 0.58706842 5.8922935 -1 10 C-1.99 9.34 -2.98 8.68 -4 8 C-2.68 5.36 -1.36 2.72 0 0 Z " fill="#232323" transform="translate(793,661)"/>
</svg>
